<svg width="729" height="730" viewBox="0 0 729 730" fill="none" xmlns="http://www.w3.org/2000/svg">
<path d="M409.632 699.218C423.226 707.868 435.407 718.466 447.024 729.922L269.138 729.922C291.63 719.246 313.415 706.855 335.413 695.088C361.294 681.177 385.551 683.944 409.632 699.218Z" fill="#26272B" fill-opacity="0.2"/>
<path d="M-424.045 106.256C-408.368 129.479 -397.351 155.546 -386.97 181.847C-375.566 210.798 -370.34 241.346 -370.764 272.907C-370.87 280.35 -371.187 287.909 -372.247 295.234C-373.836 306.144 -376.519 316.781 -382.239 326.211C-392.267 342.654 -407.026 352.2 -423.021 359.292C-453.245 372.657 -485.447 376.982 -517.225 382.982C-531.172 385.593 -545.189 387.892 -559.172 390.191C-563.056 390.814 -566.975 391.32 -570.894 391.788L-570.894 377.254C-550.203 373.124 -529.936 369.189 -509.845 364.825C-487.636 359.993 -465.85 353.525 -445.83 341.368C-429.412 331.393 -416.277 317.833 -408.226 299.014C-397.033 272.868 -396.186 245.126 -400.352 217.305C-404.554 189.173 -416.418 164.041 -429.235 139.688C-442.405 114.634 -459.212 92.6187 -478.385 72.7858C-491.52 59.1872 -505.679 47.225 -521.885 38.3801C-537.457 29.8859 -553.875 24.5867 -570.965 21.5864L-570.965 0.194885L-546.355 0.194887C-528.947 6.50714 -512.564 15.4301 -497.522 27.4312C-485.094 37.3281 -474.007 49.2902 -462.002 59.8886C-447.066 73.0585 -435.379 89.4626 -424.045 106.256Z" fill="#26272B" fill-opacity="0.2"/>
<path d="M-570.965 518.54C-556.241 515.5 -541.694 513.591 -526.476 515.734C-496.816 519.942 -477.079 538.178 -464.932 566.778C-456.564 586.533 -454.481 607.924 -458.436 629.549C-463.061 654.876 -475.101 675.644 -493.427 691.152C-516.695 710.868 -543.353 713.985 -570.965 709.894L-570.965 692.477C-562.455 693.023 -554.44 693.529 -546.46 693.607C-532.302 693.763 -518.99 688.814 -507.515 680.32C-482.163 661.578 -467.828 627.991 -476.372 591.442C-484.882 554.971 -508.186 535.294 -541.341 534.476C-551.015 534.242 -560.725 536.074 -571 537.749L-571 518.54L-570.965 518.54Z" fill="#26272B" fill-opacity="0.2"/>
<path d="M-204.742 159.482C-195.526 181.808 -190.477 205.226 -189.841 229.735C-189.559 239.982 -189.594 250.23 -189.877 260.478C-190.053 267.413 -190.371 274.427 -191.465 281.246C-196.091 310.82 -204.954 338.913 -217.453 365.487C-225.821 383.333 -235.319 400.516 -243.97 418.167C-259.082 449.027 -271.934 480.861 -278.361 515.539C-282.633 538.528 -285.175 561.79 -285.669 585.13C-286.022 602.352 -284.363 619.652 -283.057 636.875C-281.327 659.357 -276.277 681.061 -268.227 701.751C-264.767 710.674 -259.929 718.895 -252.515 725.129C-250.219 727.039 -247.889 728.597 -245.488 729.883L-300.993 729.883C-300.711 702.842 -301.735 675.8 -303.571 648.798C-304.807 630.796 -303.995 612.639 -303.747 594.559C-303.571 581.389 -303.324 568.18 -302.265 555.049C-300.852 537.398 -299.122 519.786 -296.615 502.291C-291.354 465.47 -279.067 431.415 -262.013 399.308C-248.277 373.475 -233.271 348.46 -222.784 320.639C-213.145 295 -207.284 268.388 -206.436 240.723C-206.048 228.488 -208.025 216.175 -209.049 203.901C-210.744 183.718 -217.241 165.054 -225.644 147.442C-234.366 129.128 -244.429 111.555 -254.245 93.9046C-271.687 62.5771 -289.341 31.4055 -306.89 0.15603L-289.836 0.156032C-274.123 29.1845 -258.482 58.252 -242.204 86.9299C-228.857 110.542 -215.228 134.038 -204.742 159.482Z" fill="#26272B" fill-opacity="0.2"/>
<path d="M-291.389 140.701C-276.242 165.521 -270.275 192.991 -277.584 222.565C-281.538 238.502 -287.823 253.23 -302.406 261.14C-310.492 265.504 -321.084 263.127 -326.592 255.334C-329.735 250.893 -332.665 246.1 -334.819 241.034C-342.94 221.747 -350.638 202.265 -358.582 182.899C-364.514 168.444 -371.187 154.338 -376.519 139.61C-390.784 100.295 -413.911 68.3828 -443.853 42.6663C-460.695 28.2105 -477.467 13.4818 -495.368 0.194892L-370.622 0.194903C-361.513 26.3011 -349.931 51.0046 -334.961 73.7988C-320.343 96.0086 -305.301 117.946 -291.389 140.701Z" fill="#26272B" fill-opacity="0.2"/>
<path d="M-46.7347 46.1341C-67.1432 37.1332 -81.3726 20.6512 -92.0358 0.116988L-51.2542 0.116992C-41.8268 6.89678 -28.6213 8.10466 -19.5116 0.116995L25.7897 0.116999C23.1415 11.2998 19.0104 21.7033 11.5602 30.8599C-3.62256 49.5629 -25.3022 55.6024 -46.7347 46.1341Z" fill="#26272B" fill-opacity="0.2"/>
<path d="M-233.977 164.937C-223.773 191.511 -221.725 219.682 -224.973 248.477C-227.374 269.673 -232.141 290.091 -241.251 308.677C-252.444 331.51 -264.837 353.681 -277.513 375.618C-293.508 403.322 -305.372 432.779 -309.785 465.236C-313.493 492.394 -316.141 519.786 -318.224 547.14C-319.672 566.193 -319.389 585.442 -319.848 604.573C-320.343 625.809 -320.378 647.044 -321.402 668.241C-322.073 682.58 -323.344 697.036 -325.674 711.141C-326.734 717.609 -328.146 723.882 -329.841 729.922L-356.11 729.922C-354.063 725.402 -352.191 720.765 -350.461 716.012C-341.351 690.919 -338.456 664.423 -336.479 637.81C-335.384 623.12 -335.243 608.353 -334.996 593.624C-334.395 555.517 -333.76 517.41 -333.619 479.263C-333.548 456.508 -332.701 433.909 -329.311 411.426C-326.628 393.464 -322.249 376.124 -312.292 361.24C-304.242 349.2 -295.944 337.355 -287.258 325.86C-265.896 297.611 -250.184 266.907 -246.936 229.189C-245.382 211.11 -246.971 193.887 -251.137 176.782C-257.705 149.858 -271.758 127.063 -285.811 104.464C-305.266 73.2144 -324.933 42.1208 -341.316 8.68923C-342.693 5.88375 -343.999 3.03933 -345.306 0.117025L-323.344 0.117027C-319.778 7.67611 -316.141 15.1963 -312.01 22.3657C-294.497 52.9918 -276.171 83.0724 -258.905 113.893C-249.69 130.336 -240.757 147.208 -233.977 164.937Z" fill="#26272B" fill-opacity="0.2"/>
<path d="M33.7341 82.3321C11.2071 105.438 -15.1333 112.101 -44.0159 100.373C-66.6488 91.177 -84.5151 74.0326 -98.674 52.6412C-107.113 39.8608 -114.916 26.496 -122.295 12.8973C-124.485 8.84501 -126.356 4.59788 -128.157 0.116984L-110.432 0.116986C-99.8391 24.236 -86.1746 45.8613 -65.872 61.8368C-52.5606 72.3182 -37.6956 78.7863 -21.5241 78.9032C-4.71711 79.0201 10.4656 72.0065 22.5413 58.7197C35.9233 43.9911 44.7858 26.3401 48.2108 5.61102C48.5286 3.74072 48.8463 1.90936 49.1641 0.0780608L70.2082 0.0780628C66.7832 32.2238 55.3785 60.1223 33.7341 82.3321Z" fill="#26272B" fill-opacity="0.2"/>
<path d="M-570.965 45.16C-569.658 45.121 -568.458 45.121 -567.257 45.3158C-563.126 45.9003 -558.96 46.7185 -554.899 47.7316C-515.706 57.122 -487.283 84.0075 -462.92 117.205C-449.185 135.908 -438.556 156.754 -429.235 178.535C-421.714 196.108 -418.148 214.694 -417.583 233.826C-417.301 243.489 -418.748 253.308 -420.302 262.855C-423.586 282.921 -432.307 300.338 -445.371 314.327C-457.517 327.341 -472.276 336.42 -488.377 342.771C-512.564 352.317 -537.668 357.382 -562.773 362.682C-565.421 363.227 -568.175 363.539 -570.965 363.773L-570.965 347.758C-570.364 347.68 -569.764 347.602 -569.164 347.446C-552.604 343.472 -535.938 339.926 -519.626 335.056C-500.17 329.25 -481.775 320.288 -466.592 305.17C-449.891 288.571 -440.852 267.141 -438.309 242.905C-435.732 218.123 -440.145 194.238 -450.985 172.184C-463.026 147.637 -477.467 124.998 -496.251 105.984C-508.539 93.5538 -522.168 83.7348 -537.88 77.4225C-548.649 73.0975 -559.595 69.7855 -570.965 69.4738L-570.965 45.16Z" fill="#26272B" fill-opacity="0.2"/>
<path d="M-570.965 90.5925C-557.689 91.1769 -545.719 94.8397 -534.173 100.451C-509.315 112.452 -491.131 132.635 -476.478 157.3C-462.002 181.731 -451.55 207.096 -455.328 237.645C-458.577 264.062 -469.664 284.986 -488.766 300.416C-511.717 319.002 -538.516 326.951 -566.233 331.588C-567.787 331.861 -569.376 332.094 -570.965 332.328L-570.965 313.625C-569.941 313.547 -568.952 313.469 -568.034 313.275C-566.657 312.963 -565.386 312.184 -564.044 311.95C-540.776 308.248 -519.202 299.676 -500.735 283.35C-486.259 270.608 -477.22 253.62 -475.066 233.358C-472.912 212.746 -476.514 193.264 -486.93 175.146C-502.713 147.715 -522.803 126.752 -551.862 118.14C-558.042 116.309 -564.468 115.491 -570.965 114.478L-570.965 90.5925Z" fill="#26272B" fill-opacity="0.2"/>
<path d="M-547.167 174.678C-554.652 170.197 -562.632 168.171 -570.965 167.742L-570.965 137.311C-562.808 139.064 -555.005 140.428 -547.625 143.156C-530.253 149.585 -516.766 162.365 -505.997 178.38C-490.496 201.485 -488.836 230.787 -504.09 254.789C-513.694 269.907 -526.687 280.038 -542.223 286.272C-551.368 289.974 -560.655 293.208 -570.965 293.948L-570.965 266.361C-554.016 264.335 -539.646 256.309 -529.053 241.307C-520.897 229.774 -519.167 216.487 -523.439 202.576C-527.499 189.445 -536.433 181.107 -547.167 174.678Z" fill="#26272B" fill-opacity="0.2"/>
<path d="M-373.482 678.84C-365.926 654.292 -364.161 628.575 -363.349 602.898C-362.925 589.767 -363.949 576.558 -364.655 563.427C-365.326 550.88 -366.491 538.334 -367.41 525.787C-368.963 504.512 -373.2 483.822 -380.368 464.067C-388.806 440.766 -403.318 424.479 -425.881 416.959C-443.112 411.231 -460.801 411.076 -478.35 409.79C-491.131 408.855 -504.09 410.257 -516.942 411.192C-526.476 411.855 -535.938 413.219 -545.401 414.621C-553.84 415.907 -562.279 417.427 -570.929 418.985L-570.929 404.296C-553.451 401.451 -536.115 398.451 -518.743 396.113C-499.323 393.503 -479.833 391.359 -460.307 389.957C-443.465 388.71 -426.552 388.086 -409.674 388.476C-399.929 388.71 -390.29 391.243 -381.815 397.633C-369.74 406.75 -364.726 420.544 -360.877 435.039C-354.981 457.365 -353.039 480.471 -351.061 503.46C-349.331 523.761 -348.201 544.178 -348.237 564.557C-348.307 589.104 -349.967 613.613 -350.814 638.161C-351.52 658.89 -355.722 678.762 -362.113 698.205C-365.856 709.621 -370.517 720.181 -375.954 729.961L-397.528 729.961C-386.9 714.414 -379.132 697.27 -373.482 678.84Z" fill="#26272B" fill-opacity="0.2"/>
<path d="M-537.633 723.727C-519.096 721.272 -502.289 715.271 -487.177 703.114C-469.205 688.659 -456.917 669.605 -449.184 646.85C-442.546 627.251 -442.299 607.067 -445.124 586.688C-448.832 559.92 -459.177 537.398 -478.491 519.864C-502.007 498.512 -529.406 498.278 -557.406 500.85C-561.89 501.278 -566.339 502.174 -570.929 503.149L-570.929 486.511C-558.148 484.757 -545.754 482.887 -533.255 482.069C-525.24 481.562 -517.013 483.549 -508.962 484.952C-486.718 488.81 -467.969 500.616 -454.093 519.631C-429.482 553.413 -424.151 593.157 -430.789 634.576C-435.979 666.994 -452.186 692.984 -475.843 713.089C-484.07 720.064 -492.791 725.753 -502.219 729.961L-570.929 729.961L-570.929 722.597C-559.948 724.116 -549.038 725.246 -537.633 723.727Z" fill="#26272B" fill-opacity="0.2"/>
<path d="M-532.937 593.39C-542.965 586.766 -559.066 586.766 -570.965 594.559L-570.965 559.063C-557.583 554.738 -543.918 553.023 -530.148 557.27C-509.28 563.738 -493.427 582.714 -491.979 610.34C-490.425 640.031 -507.197 662.903 -529.23 671.592C-543.212 677.125 -557.053 677.281 -570.965 674.787L-570.965 644.239C-558.112 649.967 -537.668 648.408 -527.288 634.576C-517.189 621.172 -522.203 600.482 -532.937 593.39Z" fill="#26272B" fill-opacity="0.2"/>
<path d="M-426.94 538.957C-437.497 510.318 -454.94 489.121 -481.739 477.783C-491.838 473.536 -502.042 470.574 -512.67 469.795C-523.156 469.055 -533.785 468.626 -544.236 469.444C-553.098 470.146 -561.926 471.782 -570.965 473.341L-570.965 458.184C-561.573 456.352 -552.145 454.326 -542.718 453.975C-524.993 453.391 -507.162 452.339 -489.437 456.664C-462.955 463.093 -441.064 476.887 -425.704 501.902C-409.109 528.865 -403.883 559.725 -402.012 591.403C-401.376 602.391 -402.683 613.574 -403.283 624.64C-404.166 641.239 -408.226 656.941 -414.406 672.06C-423.656 694.698 -436.579 714.141 -454.163 729.922L-477.467 729.922C-453.987 714.18 -436.615 690.646 -425.281 659.747C-417.407 638.277 -415.041 615.951 -416.7 592.689C-417.972 574.142 -420.655 556.14 -426.94 538.957Z" fill="#26272B" fill-opacity="0.2"/>
<path d="M-570.965 430.792C-553.381 428.337 -536.115 425.492 -518.813 424.323C-495.898 422.765 -473.089 424.986 -450.667 431.454C-425.563 438.701 -407.449 454.755 -395.727 480.199C-383.228 507.435 -378.249 536.892 -376.802 566.7C-375.389 595.456 -374.683 624.562 -380.579 653.123C-386.511 681.918 -397.775 707.712 -415.217 729.883L-436.12 729.883C-431.813 725.285 -427.717 720.337 -423.797 715.038C-402.33 685.892 -392.267 652.188 -390.183 615.483C-388.524 585.87 -390.819 556.413 -398.516 527.735C-404.801 504.318 -413.946 482.887 -431.707 466.951C-450.915 449.689 -473.583 442.676 -497.452 440.961C-520.791 439.247 -544.201 439.987 -567.328 445.286C-568.528 445.559 -569.729 445.754 -570.929 445.91L-570.929 430.792L-570.965 430.792Z" fill="#26272B" fill-opacity="0.2"/>
<path d="M242.904 151.533C236.972 167.742 230.687 183.874 226.097 200.589C219.494 224.63 214.515 249.139 212.926 274.349C211.691 294.143 209.431 313.859 208.972 333.653C208.513 353.291 210.278 373.007 210.066 392.684C209.607 430.714 212.15 468.821 207.524 506.772C204.982 527.774 200.815 548.231 192.836 567.44C181.89 593.819 166.213 616.185 146.193 635.355C127.267 653.474 105.87 666.137 82.8487 676.151C44.1149 692.984 3.50977 701.79 -37.166 710.362C-51.5014 713.401 -65.9426 715.973 -80.2427 719.324C-91.7534 722.012 -103.017 725.636 -114.069 729.922L-191.995 729.922C-179.919 726.766 -167.985 722.714 -156.016 719.051C-127.839 710.44 -100.263 699.569 -71.0624 694.932C-46.7347 691.113 -22.6188 685.425 1.39124 679.463C24.5538 673.735 47.2574 666.059 68.7252 654.526C86.6973 644.863 102.798 632.277 118.016 617.977C134.859 602.118 148.135 583.377 158.621 562.141C174.758 529.411 180.336 493.485 183.655 457.015C185.209 439.831 185.809 422.57 186.551 405.309C187.222 389.294 187.504 373.28 188.034 357.266C188.387 346.706 188.634 336.108 189.481 325.549C191.141 304.819 192.977 284.129 195.131 263.478C197.991 235.852 204.205 209.045 212.785 182.938C222.883 152.234 233.617 121.764 243.645 91.0212C251.731 66.1229 257.945 40.6012 261.723 14.4171C262.394 9.66341 263.206 4.94863 264.054 0.194963L286.863 0.194966C285.557 8.02687 284.321 15.5081 282.838 22.9113C274.081 67.4477 258.369 109.451 242.904 151.533Z" fill="#26272B" fill-opacity="0.2"/>
<path d="M618.978 439.481C589.177 429.467 563.155 413.413 544.052 386.177C524.032 357.616 514.923 324.185 513.334 288.376C512.875 278.401 514.111 268.31 514.605 258.257C515.77 235.346 521.984 213.954 530.282 193.108C538.085 173.548 546.171 154.027 552.809 133.96C566.721 92.0343 572.441 48.3941 572.547 3.81871C572.547 2.57188 572.547 1.36388 572.547 0.117051L713.005 0.117064C709.545 11.6505 706.049 22.7944 703.507 34.1721C699.976 50.0306 696.692 66.2009 695.421 82.4102C694.291 96.9828 694.962 111.984 696.798 126.518C698.634 141.169 701.6 156.053 706.438 169.807C713.005 188.51 721.338 206.434 729 224.708L729 275.596C720.985 253.23 711.663 231.605 700.329 210.993C690.584 193.264 680.733 175.535 671.8 157.3C663.149 139.688 655.699 121.336 647.507 103.412C644.894 97.6841 642.105 91.8784 638.574 86.813C633.949 80.1501 629.747 79.8774 624.415 86.0338C618.801 92.5408 613.434 99.5545 608.915 107.036C592.178 134.934 575.795 163.067 559.306 191.16C545.288 215.045 538.721 241.658 536.849 269.712C535.826 285.22 537.732 300.611 541.016 315.729C549.914 356.798 571.17 387.424 605.56 406.01C633.348 421.012 662.973 426.428 693.656 420.661C707.003 418.167 719.431 413.258 729 403.322L729 441.624C719.431 445.442 709.51 447.819 699.376 448.248C672.259 449.417 645.424 448.365 618.978 439.481Z" fill="#26272B" fill-opacity="0.2"/>
<path d="M80.6949 80.7345C67.7718 106.022 51.2473 127.765 28.5084 143C3.15672 159.988 -22.7247 159.832 -48.6414 144.558C-73.3222 130.025 -92.0359 108.088 -108.455 83.8517C-120.354 66.2787 -131.299 47.7705 -141.645 28.9897C-146.694 19.833 -150.931 10.1698 -155.345 0.116982L-141.009 0.116983C-132.712 20.6512 -121.907 39.6659 -110.079 57.9403C-96.4495 79.0201 -81.1961 98.6192 -60.8936 112.335C-47.229 121.569 -32.6465 128.856 -16.2632 129.323C7.99395 130.025 27.6257 117.868 44.3268 100.061C59.8274 83.54 70.5965 63.3953 78.0113 40.9128C82.3896 27.6259 85.0378 13.9883 86.8386 0.117005L103.893 0.117006C103.575 4.71478 103.222 9.19574 102.516 13.6377C98.7377 37.3671 91.3934 59.7716 80.6949 80.7345Z" fill="#26272B" fill-opacity="0.2"/>
<path d="M719.078 342.576C720.667 307.43 709.298 276.492 694.186 246.49C685.323 228.917 674.519 213.292 661.172 199.693C650.544 188.9 638.68 181.458 623.497 182.354C610.892 183.094 600.617 189.29 591.684 198.329C576.148 214.071 567.18 233.865 564.073 256.815C563.084 264.179 562.696 271.661 562.025 279.064C561.636 303.573 567.957 325.626 580.385 345.693C595.427 369.968 616.4 384.385 642.14 390.736C660.819 395.373 679.25 395.139 696.375 384.346C710.851 375.267 718.266 360.967 719.078 342.576ZM678.967 308.638C678.579 314.366 678.862 318.652 677.908 322.548C673.071 342.459 658.806 347.836 642.034 343.706C610.821 336.03 592.531 294.455 605.878 262.192C614.388 241.658 630.665 236.515 645.671 246.762C666.468 260.984 677.096 283.116 678.967 308.638Z" fill="#26272B" fill-opacity="0.2"/>
<path d="M713.853 492.044C700.753 491.849 687.618 491.303 674.554 490.485C662.478 489.745 650.261 489.316 638.362 487.212C615.8 483.16 593.414 478.133 571.911 468.86C544.052 456.859 520.501 438.701 503.553 411.387C482.898 378.112 474.529 340.238 472.411 300.611C471.669 287.013 473.117 273.258 473.611 259.543C474.247 241.97 477.531 224.825 482.615 208.304C493.737 172.067 506.307 136.337 511.145 98.1908C513.157 82.4101 515.135 66.5905 515.841 50.7319C516.582 33.8993 516.123 17.0277 516.053 0.156108L543.24 0.15611C542.852 5.88383 542.464 11.3388 542.499 16.7939C542.64 41.1077 540.38 65.1098 536.955 89.112C532.259 121.998 524.032 153.715 512.239 184.224C496.35 225.332 490.418 267.842 495.644 312.262C498.645 337.9 505.319 361.941 517.006 384.463C530.459 410.374 549.525 429.467 573.394 442.91C609.833 463.444 649.414 469.211 689.56 470.458C702.66 470.886 715.795 469.016 728.965 467.457L728.965 491.693C723.88 491.927 718.866 492.122 713.853 492.044Z" fill="#26272B" fill-opacity="0.2"/>
<path d="M689.913 670.034C674.942 671.671 661.525 677.243 654.428 693.725C649.308 705.57 650.968 717.454 654.993 729.026C655.099 729.338 655.205 729.611 655.346 729.923L611.281 729.923C606.973 719.948 603.689 709.349 601.818 697.816C598.287 676.113 609.339 653.046 625.828 643.382C642.211 633.797 659.83 630.992 677.838 630.018C686.665 629.55 695.704 630.134 704.461 631.576C712.688 632.94 720.844 634.966 728.965 637.109L728.965 674.983C716.218 669.917 703.225 668.553 689.913 670.034Z" fill="#26272B" fill-opacity="0.2"/>
<path d="M660.854 564.051C634.796 563.973 608.703 564.44 582.645 565.57C565.874 566.272 549.137 568.064 532.471 570.246C518.313 572.077 504.507 576.052 491.654 583.143C476.507 591.521 467.044 608.86 469.021 624.407C470.787 638.551 474.494 652.032 480.214 664.969C490.383 687.88 502.706 709.349 516.229 729.923L482.933 729.923C478.837 724.623 474.706 719.324 470.54 714.064C459.876 700.621 449.001 687.451 437.879 674.476C426.933 661.696 415.387 649.539 401.299 640.928C392.401 635.512 382.48 632.394 372.558 632.862C359.811 633.446 348.195 639.213 337.284 646.772C313.133 663.566 288.982 680.36 264.477 696.569C243.645 710.362 221.648 721.194 198.944 729.922L120.1 729.922C139.767 724.117 159.257 717.493 178.324 709.271C212.185 694.699 243.045 674.515 270.056 647.785C295.69 622.381 316.064 592.378 328.528 556.725C333.118 543.594 336.613 529.84 338.979 516.007C341.309 502.331 336.19 489.706 330.787 477.472C320.265 453.625 308.755 430.247 299.928 405.66C284.745 363.384 276.129 319.548 279.731 273.415C281.002 257.127 283.226 241.308 288.417 226.073C292.301 214.617 297.209 203.707 305.859 195.524C316.664 185.277 328.104 183.991 338.661 196.382C342.016 200.317 345.264 204.408 348.124 208.811C356.492 221.631 368.179 220.384 376.265 211.539C393.99 192.251 406.313 169.418 414.328 143.585C421.072 121.882 426.262 99.7498 426.827 76.7607C427.392 53.5769 427.004 30.354 426.933 7.17014C426.933 4.83225 426.827 2.5333 426.686 0.195467L451.296 0.195469C452.179 12.5472 453.168 24.5873 453.168 36.6273C453.133 52.33 452.003 68.1106 450.414 83.7353C448.86 99.0094 446.53 114.206 443.846 129.285C439.291 154.885 429.899 178.692 420.684 202.577C408.926 233.086 401.793 264.998 399.851 297.962C398.439 322.198 400.063 346.434 403.63 370.592C408.22 401.764 414.964 432.156 426.298 461.223C431.735 475.173 438.832 487.992 447.977 499.175C456.91 510.085 468.351 517.332 480.815 522.476C498.01 529.567 515.841 533.23 534.06 534.944C547.76 536.269 561.425 538.217 575.124 539.464C589.566 540.789 604.042 541.685 618.554 542.581C637.268 543.75 655.982 544.724 674.695 545.776C684.511 546.322 694.362 546.75 704.178 547.413C709.051 547.725 713.959 548.27 718.796 548.971C722.186 549.439 725.575 549.985 728.965 550.53L728.965 570.986C719.714 569.584 710.569 568.22 701.389 567.207C687.901 565.609 674.377 564.09 660.854 564.051Z" fill="#26272B" fill-opacity="0.2"/>
<path d="M633.667 608.899C617.672 611.587 602.065 615.406 587.659 623.783C573.995 631.732 564.391 642.798 561.778 660.8C560.012 673.073 561.778 684.412 564.885 695.712C568.239 707.83 572.724 719.129 578.055 729.923L545.783 729.923C532.295 706.817 520.749 682.814 518.525 654.215C517.712 643.616 519.09 633.875 524.28 624.796C532.224 610.886 544.582 603.6 557.823 597.989C582.928 587.274 609.445 584.663 635.962 583.338C653.51 582.442 671.165 583.494 688.713 584.819C702.166 585.832 715.548 588.092 728.93 589.884L728.93 612.25C712.864 608.626 697.117 606.483 681.228 606.015C665.339 605.509 649.485 606.21 633.667 608.899Z" fill="#26272B" fill-opacity="0.2"/>
<path d="M638.221 524.813C621.096 523.021 604.042 520.8 586.953 518.657C563.649 515.695 541.016 509.851 519.124 500.187C492.325 488.381 472.022 468.821 457.758 441.312C439.115 405.348 431.311 365.877 428.699 325.276C427.251 302.949 427.816 280.428 430.888 257.984C434.383 232.384 440.739 207.876 449.072 183.874C463.16 143.234 471.175 101.191 472.199 57.6287C472.27 54.7843 472.552 51.9399 472.623 49.0954C472.905 40.0557 473.47 31.0549 473.294 22.0152C473.152 14.7677 472.729 7.5593 472.27 0.156104L494.973 0.156106C495.362 6.00077 495.679 11.5337 495.644 17.1056C495.538 30.2756 495.009 43.4845 494.267 56.6156C493.526 70.2142 493.102 83.9297 491.266 97.3725C487.664 123.985 482.544 150.364 473.682 175.535C461.642 209.785 453.45 245.009 452.214 281.713C451.614 299.949 452.991 318.418 455.18 336.537C457.687 357.46 462.772 377.878 470.292 397.438C480.885 424.869 496.209 448.17 518.736 465.197C539.356 480.783 562.413 490.057 586.6 495.551C604.819 499.681 623.321 502.486 641.787 505.019C657.747 507.24 673.848 508.643 689.913 509.695C702.942 510.552 715.971 510.786 728.965 511.175L728.965 532.294C711.734 530.891 694.503 529.411 677.273 528.008C664.279 526.956 651.215 526.177 638.221 524.813Z" fill="#26272B" fill-opacity="0.2"/>
<path d="M728.965 40.4454L728.965 183.484C713.605 135.714 715.618 88.06 728.965 40.4454Z" fill="#26272B" fill-opacity="0.2"/>
<path d="M160.563 116.348C152.019 139.454 142.132 161.976 133.234 184.926C114.45 233.436 101.633 284.168 87.5448 334.393C77.6936 369.539 67.2069 404.296 50.3292 436.325C36.4528 462.626 18.8338 485.147 -4.47007 501.668C-27.2442 517.877 -51.7132 527.501 -79.4659 521.774C-101.781 517.176 -112.974 502.954 -114.316 476.341C-114.881 465.08 -114.598 453.703 -114.351 442.403C-114.139 432.857 -113.504 423.349 -112.939 413.803C-111.597 391.437 -109.584 369.111 -108.949 346.706C-108.454 329.951 -109.443 313.08 -110.255 296.325C-110.82 284.051 -111.42 271.622 -113.327 259.543C-115.834 243.762 -118.835 227.942 -123.143 212.668C-128.016 195.407 -133.347 178.068 -140.691 161.976C-150.084 141.48 -161.594 122.154 -172.328 102.399C-186.981 75.3964 -201.882 48.5888 -216.393 21.5085C-220.136 14.4949 -223.596 7.32541 -227.021 0.0390332L-213.887 0.0390345C-209.296 9.70224 -204.671 19.4045 -199.586 28.756C-179.637 65.3825 -159.793 102.048 -139.173 138.207C-120.918 170.236 -107.572 204.486 -99.5214 241.073C-94.2603 264.998 -90.3764 289.311 -86.5631 313.586C-83.244 334.588 -81.1255 355.785 -78.0536 376.826C-75.5114 394.165 -72.3336 411.309 -64.4244 426.934C-58.8456 437.961 -45.1105 447.196 -34.8003 445.676C-25.0198 444.234 -15.8395 440.689 -7.29471 434.844C10.7128 422.492 23.3886 404.724 34.4756 385.398C51.6357 355.551 63.1464 322.782 75.0807 290.208C87.1563 257.244 99.0907 224.202 112.014 191.628C123.101 163.69 136.024 136.61 147.146 108.672C160.104 76.0977 169.073 42.1597 172.568 6.62409C172.78 4.40308 173.027 2.22108 173.31 6.95839e-05L188.528 7.10213e-05C187.398 8.57228 186.127 17.1445 184.856 25.7167C180.16 57.1221 171.368 87.1247 160.563 116.348Z" fill="#26272B" fill-opacity="0.2"/>
<path d="M92.3115 126.245C81.7894 143.818 69.2195 159.91 57.3204 176.431C46.1981 191.9 33.5929 205.733 18.3395 216.331C5.20457 225.449 -8.95431 229.228 -23.6074 222.098C-31.5519 218.24 -39.6376 213.097 -45.7107 206.395C-58.9515 191.861 -71.5921 176.548 -83.2793 160.456C-99.5567 138.09 -115.446 115.257 -130.205 91.6446C-144.152 69.3569 -156.757 46.0561 -169.327 22.7943C-173.246 15.547 -176.601 7.90995 -179.955 0.0781002L-166.396 0.0781015C-159.476 15.586 -151.814 30.7431 -143.869 45.6665C-130.664 70.4869 -115.375 93.7487 -98.8505 116.114C-83.6677 136.649 -67.2138 155.391 -46.9818 169.807C-36.0714 177.561 -24.596 183.25 -11.214 184.068C4.21599 185.004 17.139 178.263 29.3912 169.574C43.8324 159.326 55.9786 146.156 67.0303 131.583C87.2623 104.854 102.269 75.0847 110.319 41.4194C113.567 27.8987 115.792 14.1053 118.228 0.0391269L133.552 0.0391283C132.917 9.31269 131.257 18.2355 129.668 27.1195C123.171 62.9668 110.425 96.0087 92.3115 126.245Z" fill="#26272B" fill-opacity="0.2"/>
<path d="M121.759 136.571C103.822 173.977 85.3556 211.071 67.56 248.555C55.0959 274.817 42.7379 301.196 25.7544 324.302C16.9272 336.303 7.25253 347.758 -6.48264 353.603C-18.5229 358.746 -29.1508 356.136 -37.8015 346.278C-42.886 340.472 -47.229 333.536 -50.7245 326.406C-64.8128 297.767 -72.7572 266.322 -83.4558 236.125C-92.2124 211.344 -100.898 186.445 -113.539 163.729C-128.439 136.921 -144.399 110.815 -159.44 84.1245C-171.304 63.0837 -182.674 41.6921 -193.866 20.2226C-197.256 13.6766 -200.328 6.93583 -203.4 0.15604L-190.653 0.156041C-187.864 5.92276 -185.004 11.6505 -182.285 17.4952C-166.432 51.4333 -147.541 83.3842 -127.98 114.751C-106.83 148.689 -86.2099 182.9 -67.5316 218.552C-59.7636 233.397 -50.3009 247.425 -40.0966 260.4C-24.4195 280.311 -6.83572 283.779 14.0671 267.842C26.7783 258.14 36.9826 245.71 45.6686 231.878C64.0291 202.616 82.2131 173.158 99.7263 143.234C112.543 121.297 123.065 97.801 130.904 73.0975C137.048 53.7322 142.485 34.1331 144.357 13.5208C144.745 9.03992 145.345 4.59791 146.016 0.11701L160.705 0.117012C159.469 23.0671 154.384 45.16 148.311 67.0191C141.603 91.1771 132.458 114.283 121.759 136.571Z" fill="#26272B" fill-opacity="0.2"/>
<path d="M380.749 135.713C371.64 148.65 359.493 153.131 347.1 138.168C345.829 136.649 344.911 134.817 343.675 133.259C332.023 118.374 324.608 112.686 308.401 130.531C287.605 153.481 273.728 181.575 264.054 212.006C257.945 231.176 254.344 251.126 253.885 271.583C253.461 291.26 252.225 310.937 252.931 330.575C253.532 347.213 256.074 363.812 258.298 380.333C261.017 400.399 264.442 420.31 267.408 440.338C270.091 458.573 273.552 476.809 274.893 495.2C276.164 512.383 276.412 529.722 273.94 547.023C271.504 564.245 267.055 580.649 259.64 595.923C246.399 623.237 228.074 645.72 205.264 663.799C184.22 680.515 161.128 692.867 136.871 702.686C108.165 714.297 78.647 722.441 48.9522 730L-41.8621 730C-8.84833 722.168 24.1654 714.453 57.0732 706.193C84.8613 699.179 111.837 688.892 137.401 674.982C164.377 660.331 187.433 640.109 205.617 613.223C225.426 583.961 235.347 550.88 237.289 514.994C238.914 484.524 236.83 454.014 234.641 423.622C234.182 417.193 233.688 410.803 233.158 404.413C231.781 387.541 229.451 370.669 229.204 353.798C228.745 319.47 227.968 285.064 233.052 250.893C236.336 228.994 240.503 207.369 248.482 187.069C262.853 150.559 278.601 114.751 293.113 78.3188C301.657 56.8883 309.037 34.9124 316.593 13.0143C318.041 8.84511 319.135 4.51998 320.159 0.233909L400.452 0.233917C401.334 7.48129 402.182 14.456 402.323 21.4696C402.676 41.3415 403.206 61.2133 399.781 80.9684C396.391 100.529 392.048 119.699 380.749 135.713Z" fill="#26272B" fill-opacity="0.2"/>
<path d="M205.158 161.352C190.223 202.577 180.442 245.165 175.075 288.961C171.968 314.171 170.132 339.576 167.908 364.903C166.319 382.826 165.401 400.828 163.529 418.713C161.587 437.338 159.61 455.963 156.432 474.354C148.876 518.501 132.917 558.011 103.575 590.39C79.9533 616.457 52.5184 635.706 21.7997 649.382C-5.28216 661.461 -33.9176 667.228 -62.5531 672.995C-83.7737 677.242 -104.924 682.074 -126.074 686.749C-151.955 692.477 -177.377 701.088 -204.459 698.127C-222.784 696.14 -236.837 687.1 -247.253 671.086C-261.306 649.499 -265.402 624.25 -266.991 598.495C-268.298 577.298 -266.038 556.179 -262.613 535.45C-256.963 501.512 -245.135 469.873 -230.764 439.325C-218.9 414.076 -206.366 389.1 -195.844 363.149C-182.321 329.796 -174.694 294.65 -175.082 257.672C-175.259 241.112 -175.435 224.63 -178.189 208.382C-182.956 180.133 -192.949 154.027 -206.295 129.596C-226.88 91.9174 -247.995 54.6283 -268.721 17.0665C-271.758 11.5725 -274.582 5.9617 -277.443 0.194912L-262.648 0.194914C-261.342 2.88351 -259.965 5.53311 -258.552 8.14371C-244.711 33.5096 -230.694 58.7976 -217.029 84.2803C-204.53 107.581 -191.748 130.765 -180.273 154.689C-167.208 181.925 -161.029 211.733 -159.017 242.242C-157.816 260.205 -159.37 278.44 -160.147 296.559C-160.994 316.665 -165.655 336.03 -170.916 355.2C-178.684 383.411 -190.018 409.946 -201.988 436.169C-214.381 463.327 -226.951 490.368 -234.26 519.903C-241.604 549.555 -245.523 579.48 -239.097 609.872C-231.612 645.33 -211.839 663.332 -179.99 665.436C-166.114 666.371 -151.884 664.695 -138.114 662.28C-113.539 657.955 -89.1759 652.383 -64.7775 646.889C-29.9277 639.018 3.61567 627.212 34.6168 607.301C55.3078 593.975 73.5625 577.454 88.9571 557.543C110.425 529.8 123.772 497.109 131.469 461.807C135.953 441.156 139.272 420.193 142.697 399.308C144.639 387.463 145.769 375.423 147.146 363.461C148.735 349.434 149.724 335.368 151.701 321.418C154.596 300.923 157.421 280.389 161.481 260.166C166.072 237.411 170.732 214.5 177.688 192.524C191.529 148.611 209.113 106.1 219.353 60.7848C223.837 40.9519 227.474 20.8072 230.369 0.58467C230.404 0.428786 230.404 0.311904 230.44 0.19496L247.812 0.194962C246.223 11.5336 244.775 22.8723 242.55 34.0551C233.723 77.7343 220.165 119.855 205.158 161.352Z" fill="#26272B" fill-opacity="0.2"/>
<path d="M185.774 128.154C174.334 160.651 161.199 192.524 153.325 226.423C147.393 251.945 141.708 277.583 136.906 303.378C131.081 334.744 126.914 366.5 120.982 397.828C113.991 434.571 104.952 470.613 87.6859 503.538C75.2219 527.346 59.4742 547.958 39.9132 564.752C13.2197 587.702 -16.9341 603.404 -49.8419 612.132C-71.9452 617.977 -94.331 622.419 -116.54 627.874C-134.936 632.394 -153.403 634.576 -172.046 630.796C-186.699 627.796 -198.245 619.419 -205.483 604.534C-215.687 583.571 -214.805 561.245 -211.415 538.996C-207.531 513.513 -198.669 489.628 -189.135 466.132C-176.142 434.181 -163.077 402.231 -154.85 368.254C-148.671 342.888 -144.717 317.132 -144.152 290.87C-143.657 268.972 -144.47 247.23 -148.106 225.488C-151.743 203.745 -156.828 182.666 -165.372 162.716C-178.896 131.155 -196.056 101.892 -212.686 72.2791C-225.291 49.8746 -237.155 27.0025 -249.195 4.24716C-249.902 2.88339 -250.608 1.51968 -251.279 0.116973L-237.543 0.116974C-236.731 1.83139 -235.884 3.54587 -235.001 5.22134C-225.715 23.145 -216.57 41.1466 -206.966 58.8365C-191.395 87.5923 -175.047 115.803 -159.899 144.792C-137.443 187.77 -128.581 235.073 -126.285 283.973C-125.156 307.975 -127.168 331.861 -130.169 355.746C-133.135 379.203 -137.796 402.192 -143.869 424.83C-150.295 448.949 -157.64 472.756 -163.607 496.992C-167.597 513.24 -171.163 529.644 -168.762 547.062C-165.761 569.193 -153.403 582.714 -133.065 582.909C-122.331 583.026 -111.491 582.909 -100.934 581.233C-82.5378 578.35 -63.8595 575.817 -46.0638 570.246C-1.57475 556.257 34.2284 528.203 60.0391 485.381C76.14 458.651 87.0504 429.233 94.5711 398.529C106.647 349.083 116.816 299.014 128.962 249.607C135.035 224.864 143.262 200.706 151.418 176.665C161.058 148.221 172.145 120.4 181.749 91.9173C189.481 69.0841 195.025 45.4717 198.097 21.2358C198.979 14.1832 200.039 7.13063 201.063 0.117016L216.74 0.117017C215.151 10.4426 213.385 20.7292 211.761 31.0159C206.465 64.5253 196.861 96.593 185.774 128.154Z" fill="#26272B" fill-opacity="0.2"/>
</svg>
