<svg width="18" height="18" viewBox="0 0 18 18" fill="none" xmlns="http://www.w3.org/2000/svg">
<path fill-rule="evenodd" clip-rule="evenodd" d="M9 18C13.9706 18 18 13.9706 18 9C18 4.02944 13.9706 0 9 0C4.02944 0 0 4.02944 0 9C0 13.9706 4.02944 18 9 18ZM12.8536 6.85355C13.0488 6.65829 13.0488 6.34171 12.8536 6.14645C12.6583 5.95118 12.3417 5.95118 12.1464 6.14645L7.5 10.7929L5.85355 9.14645C5.65829 8.95118 5.34171 8.95118 5.14645 9.14645C4.95118 9.34171 4.95118 9.65829 5.14645 9.85355L6.93431 11.6414L6.94269 11.6498L6.9427 11.6498C6.97881 11.686 7.02984 11.7371 7.08057 11.7779C7.14269 11.8279 7.24757 11.8993 7.39571 11.9228C7.46481 11.9337 7.53519 11.9337 7.60429 11.9228C7.75243 11.8993 7.85731 11.8279 7.91943 11.7779C7.97016 11.7371 8.0212 11.686 8.05731 11.6498L8.06569 11.6414L12.8536 6.85355Z" fill="#07070A"/>
</svg>
